<svg width="249" height="236" viewBox="0 0 249 236" fill="none" xmlns="http://www.w3.org/2000/svg">
<path d="M7.56753 54.774C7.43999 54.3838 7.37298 54.0027 7.32348 53.587C7.05701 50.3055 7.63994 46.8039 8.9922 43.454C9.53701 42.0379 10.2899 40.5537 11.2514 38.9151C12.0118 37.63 12.9108 36.3285 14.1314 34.7778L14.1924 34.7003L15.0118 33.6839L15.8743 32.711C15.9788 32.5904 16.1094 32.4614 16.2139 32.3408L16.6667 31.8761C16.7537 31.7901 16.8147 31.7126 16.9018 31.6265C17.0934 31.4199 17.311 31.2048 17.5286 30.9898C18.6341 29.8798 19.8867 28.7794 21.2084 27.7139L21.2779 27.6624C22.7646 26.4855 24.0507 25.5756 25.3103 24.7608C26.9606 23.7319 28.3413 22.9351 29.6864 22.2939C31.2746 21.5156 32.8534 20.8844 34.3361 20.3997L34.4141 20.3742L35.5931 20.0176C35.8533 19.9326 36.1479 19.865 36.4165 19.806C36.5206 19.772 36.6331 19.764 36.7372 19.73L37.3264 19.595L39.3363 19.2259C42.6193 18.6998 45.9953 18.5464 49.3863 18.7911C52.8119 19.0534 56.1053 19.7043 59.2321 20.7264C61.9098 21.6074 63.3643 24.4717 62.4833 27.1494C61.6023 29.8271 58.7379 31.2816 56.0603 30.4006C53.7368 29.6342 51.2472 29.1523 48.652 28.9642C46.0914 28.7935 43.5293 28.8824 41.0691 29.2835L39.2498 29.6191C39.0937 29.6701 38.9552 29.6866 38.7991 29.7376C38.6691 29.7801 38.5305 29.7966 38.4004 29.8391L37.5075 30.1022C36.441 30.4508 35.3305 30.929 34.159 31.4847C33.1695 31.9809 32.1015 32.5891 30.7814 33.3949C29.8259 33.9951 28.8264 34.7249 27.6094 35.6698C26.5398 36.5376 25.5569 37.406 24.6689 38.3008L24.6254 38.3439C24.4948 38.4729 24.3903 38.5935 24.2857 38.714C24.1812 38.8346 24.0681 38.9291 23.9636 39.0496L23.6154 39.3938C23.5719 39.4368 23.5284 39.4798 23.5108 39.5143L22.6834 40.4182L22.0906 41.159C21.1752 42.322 20.5293 43.2529 20.0051 44.1153L19.9876 44.1498C19.3232 45.2883 18.8069 46.2632 18.4642 47.1526L18.4377 47.2476C17.6738 49.1384 17.3336 51.0923 17.4705 52.8326C17.6965 55.6378 15.5879 58.0833 12.7827 58.3093C10.4106 58.4513 8.28175 56.959 7.56753 54.774Z" fill="#F5B6CD"/>
<path d="M13.7534 29.7476C13.0902 27.7187 13.6575 25.4026 15.3884 23.9156C19.0066 20.8038 22.8555 18.2214 26.8563 16.2802C29.1909 15.1428 31.42 14.299 33.6825 13.6458C34.1592 13.5188 34.6099 13.4002 35.0086 13.2987C35.1647 13.2477 35.3032 13.2312 35.4593 13.1802L35.5894 13.1377C36.0486 13.0451 36.4558 12.9696 36.8024 12.8851C36.941 12.8686 37.0971 12.8176 37.2356 12.8011C38.1801 12.6075 39.1155 12.4745 39.9208 12.384C40.172 12.3595 40.4146 12.309 40.6397 12.293L40.8303 12.2595C42.5275 12.079 45.0557 11.886 47.7379 11.9882C48.6638 12.0022 49.5462 12.0593 50.3505 12.1419C50.6186 12.1694 50.8522 12.1794 51.1204 12.2069L51.2934 12.208C51.6826 12.2535 52.0718 12.299 52.4955 12.3621C52.651 12.3976 52.8241 12.3986 52.9797 12.4341L53.9481 12.5782C54.1642 12.6228 54.3718 12.6413 54.5619 12.6943L56.6193 13.0871L58.0884 13.4418C58.7452 13.6014 59.35 13.778 59.8857 13.9196L59.9808 13.9461C60.1103 13.9901 60.2659 14.0257 60.3954 14.0697C60.7756 14.1758 61.2248 14.3168 61.6825 14.4839L63.0816 14.9767C63.5048 15.1263 63.8674 15.2669 64.1351 15.3809L64.7738 15.6616C65.6632 16.0043 66.4916 16.4245 67.2079 16.7662C67.441 16.8628 67.6566 16.9938 67.8897 17.0904L68.0967 17.1954C70.3312 18.3941 72.28 19.5997 74.0207 20.8733C74.4259 21.144 74.7445 21.4141 75.0547 21.6582C75.1667 21.7368 75.2873 21.8413 75.3993 21.9199L76.1401 22.5127C76.3297 22.6522 76.5018 22.8263 76.6653 22.9744L76.8719 23.166C76.9925 23.2705 77.113 23.3751 77.2336 23.4797C77.5262 23.7583 77.8363 24.0024 78.1289 24.2811L78.258 24.4116L79.3249 25.4736C79.7466 25.8828 80.0732 26.2655 80.3483 26.5787C80.4344 26.6657 80.5204 26.7528 80.5889 26.8743L80.6404 26.9439C80.7265 27.0309 80.7865 27.1264 80.864 27.1875C81.1391 27.5006 81.5003 27.9008 81.8609 28.3876L82.9088 29.7437C83.1319 30.0739 83.381 30.3955 83.6041 30.7257L83.9987 31.3165C84.1103 31.4815 84.2733 31.7162 84.4449 31.9768L85.3793 33.514C85.5078 33.7311 85.6879 34.0177 85.8674 34.3909L86.5522 35.693C86.7748 36.1097 86.9458 36.4569 87.0739 36.7605L87.3645 37.3853C87.7746 38.2877 88.1157 39.1551 88.3708 39.9355C88.4473 40.1696 88.5499 40.3952 88.6264 40.6293L88.6689 40.7594L88.7114 40.8894C88.8305 41.2536 88.958 41.6438 89.051 42.0165L89.4922 43.5422L89.7792 44.7727C89.8723 45.1454 89.9478 45.5526 90.0408 45.9253L90.0828 46.1419L90.3419 47.7271C90.3589 47.7791 90.3584 47.8656 90.3754 47.9177C90.4174 48.1343 90.4419 48.3854 90.4834 48.6885L90.6229 49.9961C90.6639 50.3858 90.7049 50.7755 90.7199 51.1736L90.7274 51.3727L90.8158 54.0214L90.7582 56.4875C90.7301 56.8422 90.7106 57.2228 90.6826 57.5775L90.6275 58.1137C90.4228 60.5703 90.1771 62.6372 89.8109 64.5996C89.283 67.5649 86.4417 69.5301 83.4764 69.0023C80.5111 68.4744 78.5458 65.633 79.0737 62.6677C79.3599 61.077 79.5775 59.3648 79.7282 57.2714L79.7742 56.7957C79.8018 56.5275 79.8208 56.2334 79.8223 55.9738L79.8689 53.9144L79.7855 51.8975C79.7525 51.6203 79.7195 51.3432 79.721 51.0836L79.5895 49.8886C79.5725 49.8365 79.573 49.75 79.556 49.698C79.548 49.5854 79.5139 49.4814 79.5144 49.3948L79.2974 48.0262C79.2384 47.7576 79.1794 47.489 79.1204 47.2203L78.8843 46.1459L78.5702 45.0969C78.4852 44.8368 78.4262 44.5681 78.3411 44.308C78.2646 44.0739 78.1621 43.8483 78.0941 43.6402C77.864 43.0244 77.6424 42.4346 77.4373 41.9834L77.3688 41.8619L77.0357 41.107C76.9502 40.9334 76.9247 40.8554 76.9247 40.8554L76.8646 40.7599L76.1029 39.3102C76.0859 39.2581 76.0428 39.2146 75.9913 39.1451L75.2986 37.7304C75.247 37.6609 75.23 37.6089 75.1785 37.5393C75.1185 37.4438 75.067 37.3743 75.007 37.2787L74.7409 36.905C74.5778 36.6704 74.4147 36.4358 74.2517 36.2012L73.2983 34.9581C73.2038 34.845 73.0232 34.6449 72.8341 34.4188C72.7481 34.3318 72.6535 34.2187 72.5675 34.1317C72.473 34.0186 72.3439 33.8881 72.2494 33.775C72.0773 33.6009 71.9227 33.3923 71.8367 33.3053L71.7507 33.2183L70.7183 32.1737C70.5117 31.9821 70.3136 31.8166 70.107 31.625C69.9865 31.5204 69.8574 31.3899 69.7369 31.2853C69.6593 31.2243 69.5818 31.1632 69.5303 31.0937C69.4527 31.0327 69.4097 30.9892 69.3322 30.9281L68.7895 30.5009C68.6344 30.3788 68.4793 30.2568 68.3243 30.1347C68.1262 29.9691 67.9281 29.8036 67.7816 29.7075L67.6695 29.629C66.377 28.6695 64.9024 27.7695 63.1856 26.8335C62.9525 26.737 62.7369 26.6059 62.5038 26.5093C61.8911 26.2202 61.3388 25.94 60.8121 25.7379L60.7086 25.6854L59.9402 25.3607C59.8797 25.3517 59.7071 25.2642 59.6121 25.2376L59.5171 25.2111L58.0489 24.6833C57.8588 24.6303 57.6342 24.5598 57.3751 24.4717C57.185 24.4187 56.995 24.3656 56.7964 24.2866L56.7619 24.2691C56.3732 24.137 55.993 24.0309 55.7164 23.9774L55.6214 23.9509L54.2473 23.6227L52.596 23.3275C52.501 23.301 52.3799 23.2829 52.2849 23.2564L51.6191 23.1574C51.4375 23.1303 51.2559 23.1033 51.0744 23.0763C50.8062 23.0488 50.5381 23.0212 50.296 22.9852C50.0279 22.9577 49.7683 22.9562 49.5002 22.9287C48.8169 22.8641 48.1941 22.8085 47.6488 22.814L47.4498 22.8215C45.9271 22.7434 44.2563 22.8289 42.0828 23.0499C41.8317 23.0744 41.6151 23.1164 41.364 23.1409C40.6712 23.2234 40.0129 23.3234 39.4757 23.4414L39.3976 23.4669C39.207 23.5004 39.0165 23.534 38.8259 23.5675C38.5572 23.6265 38.3061 23.651 38.072 23.7275C37.9159 23.7785 37.7254 23.812 37.5693 23.863C37.2747 23.9306 36.98 23.9981 36.7979 24.0576L36.7199 24.0831C35.0816 24.5322 33.4249 25.1889 31.6631 26.0527C28.5386 27.5923 25.4371 29.6426 22.5147 32.1526C20.2446 34.1038 16.7931 33.8501 14.8418 31.58C14.3171 31.0317 13.9659 30.3979 13.7534 29.7476Z" fill="#FF7F41"/>
<path d="M64.9682 81.7885C64.3305 79.8376 64.6202 77.6412 65.9114 75.8659C70.8834 69.1446 73.2203 60.1752 72.3033 51.2041C72.2863 51.1521 72.2868 51.0656 72.2698 51.0136L72.1363 50.1647C71.8518 48.5014 71.4792 47.0973 70.976 45.8222C69.6195 42.4651 71.26 38.6755 74.6255 37.345C77.9911 36.0146 81.7722 37.629 83.1026 40.9945C83.9469 43.137 84.5741 45.4081 85.0092 47.9723L85.1512 48.8471C85.1592 48.9597 85.1847 49.0377 85.1927 49.1503L85.2097 49.2023L85.2747 49.9296C86.4847 62.0871 83.2457 74.3745 76.3807 83.6724C74.2436 86.5591 70.1552 87.1757 67.2425 85.0471C66.1831 84.1842 65.3763 83.0371 64.9682 81.7885Z" fill="#59CBE8"/>
<path d="M204.655 198.462C204.063 198.257 203.478 197.964 202.936 197.566C199.719 195.221 199.17 190.441 201.751 186.895L202.545 185.76L203.425 184.415C203.523 184.239 203.622 184.064 203.735 183.923C204.156 183.228 204.555 182.587 204.848 181.998L204.936 181.849L205.342 181.12C205.364 181.067 205.385 181.014 205.406 180.962C205.448 180.856 205.526 180.733 205.569 180.628C205.678 180.426 205.763 180.215 205.872 180.013C206.003 179.759 206.123 179.53 206.197 179.346L206.883 177.784C206.947 177.626 207.042 177.389 207.127 177.178C207.212 176.967 207.296 176.757 207.381 176.546C208.127 174.555 208.647 172.845 208.97 171.277L208.991 171.224C209.42 169.182 209.647 167.431 209.694 165.917L209.723 165.147L209.728 163.739C209.721 163.617 209.728 163.529 209.721 163.407L209.718 163.346L209.582 161.378L209.449 160.312C209.404 159.937 209.288 159.386 209.183 158.81C209.13 158.522 209.078 158.233 209.025 157.945C208.99 157.753 208.93 157.552 208.86 157.378C208.811 157.151 208.726 156.942 208.677 156.714L208.523 156.121C208.509 156.086 208.494 156.051 208.491 155.99C208.449 155.885 208.417 155.754 208.375 155.65L207.925 154.324C207.841 154.114 207.746 153.931 207.661 153.722C207.577 153.513 207.492 153.304 207.408 153.094L207.116 152.423C207.049 152.31 206.993 152.17 206.926 152.057L206.19 150.602C206.176 150.567 206.162 150.532 206.137 150.524L205.254 149.018C205.201 148.939 205.173 148.869 205.12 148.791L205.067 148.713L203.8 146.833C203.761 146.79 203.722 146.747 203.684 146.703C203.606 146.616 203.539 146.503 203.462 146.416C200.997 143.252 201.7 138.365 205.01 135.522C208.32 132.679 213.016 132.957 215.481 136.122L215.612 136.287C215.781 136.496 215.925 136.696 216.069 136.896L216.189 137.087L217.506 138.984C217.795 139.384 218.009 139.758 218.143 139.985L219.08 141.569C219.227 141.831 219.467 142.214 219.699 142.684L220.463 144.209C220.572 144.427 220.762 144.793 220.955 145.22L221.275 145.961C221.346 146.135 221.416 146.31 221.487 146.484C221.627 146.833 221.793 147.19 221.933 147.539L222.049 147.879L222.644 149.615C222.731 149.886 222.83 150.13 222.918 150.4L222.967 150.627L223.195 151.456C223.241 151.622 223.287 151.788 223.332 151.954C223.438 152.321 223.557 152.722 223.645 153.202L223.726 153.56C223.789 153.822 223.817 154.102 223.88 154.364C224.048 155.202 224.248 156.172 224.371 157.264L224.532 158.61L224.671 160.848C224.712 161.373 224.712 161.793 224.715 162.064L224.713 164.373L224.659 165.135C224.579 167.567 224.231 170.176 223.601 173.138C223.098 175.574 222.337 178.16 221.266 181.029L221.192 181.213C221.128 181.371 221.075 181.503 221.011 181.661C220.852 182.056 220.675 182.565 220.418 183.135L219.69 184.803C219.463 185.295 219.258 185.733 219.05 186.111C218.962 186.261 218.898 186.419 218.799 186.594L218.736 186.752C218.714 186.805 218.693 186.858 218.637 186.928C218.517 187.156 218.375 187.437 218.202 187.797L217.796 188.527C217.238 189.563 216.697 190.486 216.164 191.321C216.055 191.523 215.921 191.717 215.8 191.945L215.589 192.262L214.173 194.381L213.399 195.463C211.323 198.314 207.69 199.514 204.655 198.462Z" fill="#59CBE8"/>
<path d="M156.597 218.891C153.916 217.95 152.627 214.878 153.743 211.95C154.87 208.995 158.004 207.322 160.756 208.227C164.611 209.488 168.57 210.206 172.509 210.339L172.85 210.337C173.581 210.35 174.276 210.381 174.883 210.35L174.919 210.332C175.089 210.331 175.295 210.312 175.465 210.31C175.721 210.309 175.952 210.298 176.122 210.297L177.602 210.207C177.868 210.179 178.22 210.15 178.582 210.094L179.924 209.925L181.78 209.601L183.609 209.207L184.976 208.834C185.419 208.715 185.97 208.543 186.52 208.371C186.783 208.28 187.035 208.216 187.298 208.126C189.219 207.429 190.647 206.833 191.937 206.159L192.043 206.105C193.347 205.465 194.775 204.657 196.466 203.544L197.604 202.755C197.685 202.693 197.767 202.63 197.849 202.567C197.895 202.522 197.966 202.486 198.012 202.442L199.658 201.161L200.717 200.284C203.323 198.091 205.808 195.491 208.117 192.554C210.369 189.689 212.355 186.639 214.005 183.441C215.675 180.189 217.023 176.824 217.981 173.444C218.824 170.42 221.844 168.464 224.69 169.066C227.535 169.668 229.147 172.64 228.304 175.664C227.135 179.853 225.466 184.019 223.375 188.038C221.338 191.922 218.928 195.676 216.21 199.139C213.378 202.745 210.306 205.962 207.05 208.719L205.688 209.856L203.89 211.235C203.68 211.405 203.456 211.54 203.257 211.683L201.687 212.777C199.537 214.186 197.707 215.219 195.942 216.092C194.201 216.974 192.358 217.759 189.936 218.646L189.709 218.718C189.456 218.782 189.218 218.881 188.956 218.972C188.274 219.19 187.486 219.461 186.669 219.662L185.085 220.081L182.728 220.595L180.388 220.992L178.926 221.18C178.443 221.254 177.886 221.302 177.279 221.333L175.909 221.431C175.472 221.461 175.071 221.472 174.731 221.475C174.585 221.485 174.475 221.476 174.33 221.486C173.357 221.511 172.481 221.508 171.615 221.478L171.164 221.472C166.285 221.284 161.428 220.402 156.718 218.872C156.672 218.917 156.622 218.899 156.597 218.891Z" fill="#FF7F41"/>
<path d="M157.151 211.678C156.599 211.478 156.071 211.287 155.604 211.087L155.378 211.005C155.177 210.932 154.962 210.823 154.761 210.75C154.144 210.495 153.426 210.203 152.68 209.838C152.554 209.792 152.464 209.728 152.339 209.683C152.023 209.537 151.707 209.391 151.402 209.217L151.302 209.18L149.31 208.11L147.376 206.965L146.063 206.141C145.744 205.93 145.324 205.682 144.876 205.361C141.6 203.095 138.555 200.531 135.791 197.687L135.712 197.594L134.249 196.048C134.091 195.863 133.933 195.679 133.776 195.495L131.169 192.39L129.019 189.513C128.886 189.338 128.7 189.08 128.485 188.747L126.647 185.952C126.324 185.454 126.066 185.011 125.851 184.678C125.797 184.595 125.744 184.512 125.69 184.429L125.661 184.355L124.275 181.946C124.017 181.503 123.824 181.115 123.645 180.764C123.602 180.653 123.534 180.533 123.48 180.45L123.451 180.376L122.062 177.679C121.242 175.952 120.443 174.168 119.656 172.357C117.988 168.383 119.79 163.438 123.664 161.278C127.538 159.118 132.003 160.606 133.671 164.58C134.333 166.123 134.995 167.667 135.7 169.098L136.925 171.481C137.033 171.647 137.104 171.832 137.201 172.026C137.258 172.174 137.38 172.377 137.419 172.423L138.831 174.842C138.913 174.999 139.007 175.128 139.064 175.276C139.107 175.387 139.186 175.479 139.229 175.59L139.322 175.719L141.199 178.56C141.278 178.653 141.332 178.736 141.411 178.828L143.296 181.354L145.347 183.749C145.401 183.832 145.49 183.897 145.544 183.98C145.558 184.017 145.609 184.035 145.623 184.072L146.903 185.425C149.054 187.635 151.454 189.647 154.026 191.436L154.18 191.556C154.32 191.638 154.525 191.776 154.729 191.913L155.917 192.693L157.391 193.544L158.938 194.358C159.103 194.449 159.304 194.522 159.469 194.614C159.634 194.705 159.785 194.76 159.95 194.851L160.05 194.888C160.406 195.08 160.883 195.252 161.35 195.453C161.576 195.535 161.766 195.635 161.992 195.717C163.137 196.163 164.619 196.699 166.105 197.078L166.342 197.132C166.73 197.24 167.254 197.366 167.789 197.464C168 197.509 168.237 197.563 168.449 197.608C168.55 197.644 168.747 197.652 168.909 197.679C169.095 197.714 169.282 197.75 169.469 197.786L169.63 197.812C169.842 197.857 170.115 197.892 170.226 197.901L170.388 197.927L171.591 198.076C171.788 198.084 171.95 198.111 172.147 198.119C172.345 198.126 172.506 198.153 172.704 198.161L173.174 198.204L174.851 198.238C176.402 198.227 177.788 198.124 179.095 197.929C183.312 197.324 186.845 200.478 187.036 204.936C187.217 209.421 183.94 213.514 179.748 214.129C177.805 214.412 175.769 214.565 173.529 214.582L173.27 214.583L170.94 214.535L170.247 214.476C170.11 214.458 169.938 214.459 169.802 214.442C169.468 214.416 169.159 214.4 168.825 214.375L168.627 214.367L167.4 214.209C166.818 214.157 166.308 214.068 165.91 213.988L165.673 213.934C165.561 213.925 165.436 213.88 165.325 213.872C165.001 213.818 164.603 213.738 164.143 213.667L164.093 213.649C163.881 213.604 163.695 213.568 163.483 213.523C162.822 213.38 162.051 213.228 161.225 212.993C159.75 212.586 158.357 212.114 157.151 211.678Z" fill="#F5B6CD"/>
<path d="M125.813 192.612C124.867 192.279 124.04 191.651 123.43 190.761L121.107 187.339L119.576 184.777C118.988 183.834 118.51 182.899 118.035 182.027L116.958 179.963C116.738 179.518 116.533 179.108 116.341 178.734C116.26 178.583 116.189 178.405 116.108 178.254L116.069 178.209L115.198 176.339C114.978 175.894 114.755 175.387 114.518 174.844L112.957 171.076C112.175 169.054 111.376 166.934 110.648 164.778C109.18 160.492 107.775 155.768 106.377 150.311C105.605 147.343 107.354 144.098 110.259 143.007C113.188 141.925 116.151 143.459 116.935 146.401C118.293 151.599 119.6 156.073 120.979 160.083L120.982 160.145C121.626 162.088 122.351 163.968 123.133 165.99L123.249 166.337L124.609 169.543C124.722 169.828 124.874 170.158 125.04 170.523L125.912 172.392C126.007 172.579 126.092 172.793 126.188 172.98C126.326 173.274 126.45 173.532 126.545 173.719L127.637 175.819C128.033 176.603 128.451 177.332 128.841 177.99L128.895 178.07L130.373 180.552L132.458 183.646C134.117 186.1 133.423 189.686 130.908 191.65C129.355 192.91 127.43 193.182 125.813 192.612Z" fill="#59CBE8"/>
<path d="M35.7153 78.4809L75.2871 205.023C76.6007 209.21 81.0888 211.564 85.2758 210.25L162.586 186.058C166.773 184.745 169.126 180.257 167.813 176.069L128.241 49.5272C126.927 45.3402 122.439 42.9867 118.252 44.3003L40.9423 68.4921C36.7552 69.8057 34.4017 74.2938 35.7153 78.4809Z" fill="#9063CD"/>
<path d="M46.7438 65.2358L74.4386 194.898C75.3417 199.194 79.6108 201.958 83.9074 201.028L163.133 184.115C167.43 183.212 170.194 178.943 169.263 174.647L141.541 44.9847C140.638 40.6882 136.369 37.9242 132.072 38.8546L52.8739 55.7671C48.5774 56.6975 45.8133 60.9393 46.7438 65.2358Z" fill="#FDDA24"/>
<path d="M66.7483 48.433L71.8385 180.914C72.0027 185.292 75.7245 188.741 80.1031 188.576L161.053 185.457C165.432 185.292 168.88 181.571 168.715 177.192L163.653 44.7112C163.489 40.3326 159.767 36.8844 155.388 37.0486L74.4109 40.1684C70.0323 40.3326 66.5841 44.0544 66.7483 48.433Z" fill="#2C2A29"/>
<path d="M80.2677 109.734C80.5414 110.664 81.5265 111.102 82.4844 110.746C90.3112 108.01 98.1927 106.067 106.348 104.534C107.278 104.37 107.771 103.385 107.388 102.427C106.594 100.429 106.184 99.4166 105.363 97.4188C105.007 96.5705 104.131 96.0505 103.255 96.16C95.2918 97.4462 87.6019 99.1977 79.9119 101.715C78.9267 102.071 78.3247 103.221 78.6257 104.206C79.2825 106.45 79.6109 107.544 80.2677 109.734Z" fill="white"/>
<path d="M112.451 109.624C112.095 108.721 111.247 108.146 110.426 108.283C97.9465 110.363 85.8506 113.893 74.4662 119.421C73.6452 119.859 73.1799 120.927 73.3715 121.857C73.9188 124.211 74.1925 125.387 74.7398 127.768C74.9861 128.781 75.9439 129.219 76.8744 128.726C88.423 122.924 100.738 119.038 113.409 116.521C114.202 116.356 114.585 115.426 114.257 114.495C113.545 112.525 113.162 111.54 112.451 109.624Z" fill="white"/>
<path d="M112.916 122.869C112.56 121.911 111.63 121.309 110.781 121.528C103.009 123.526 95.4287 125.852 87.9576 128.726C86.9998 129.109 86.5072 130.149 86.8082 131.052C87.4924 133.241 87.8482 134.336 88.5323 136.525C88.8607 137.565 90.0648 138.03 91.1321 137.592C98.6032 134.609 106.184 131.955 113.928 129.766C114.667 129.547 114.996 128.671 114.695 127.768C113.983 125.825 113.627 124.84 112.916 122.869Z" fill="white"/>
<path d="M151.009 119.585C151.228 125.497 145.426 129.656 138.694 129.903L126.297 130.368L125.038 97.8018C129.143 97.0355 132.263 96.5156 135.93 96.3788C142.744 96.1051 148.3 99.088 148.518 104.616C148.628 107.791 147.068 109.98 144.14 111.239C148.765 112.415 150.845 115.097 151.009 119.585ZM136.176 102.755C135.109 102.782 134.014 102.947 132.947 103.138L133.193 109.843L136.614 109.706C139.652 109.597 140.993 108.283 140.911 106.121C140.883 104.041 139.351 102.618 136.176 102.755ZM142.744 119.558C142.635 116.876 140.883 115.836 137.517 115.973L133.494 116.137L133.795 123.69L137.736 123.526C141.02 123.417 142.826 122.021 142.744 119.558Z" fill="white"/>
<path d="M158.398 110.226C158.89 110.199 162.749 109.405 164.227 109.35C164.966 109.323 165.595 109.35 166.142 109.487L165.896 103.248C165.321 103.22 164.719 103.22 164.09 103.248C160.751 103.385 157.713 104.288 154.648 105.574L155.333 107.353C156.208 109.542 157.194 110.253 158.398 110.226Z" fill="white"/>
<path d="M166.663 123.389C166.061 123.554 165.349 123.663 164.61 123.69C162.147 123.772 160.916 123.17 160.834 121.364C160.751 119.175 163.379 118.272 166.471 118.026L166.279 113.291C159.027 114.085 153.335 116.356 153.581 122.897C153.773 127.686 158.234 129.684 163.515 129.492C164.692 129.437 165.814 129.355 166.881 129.218L166.663 123.389Z" fill="white"/>
<path d="M155.525 47.9679L156.264 67.4254C156.319 69.0674 155.087 70.4631 153.472 70.5178L142.389 70.9557L139.543 71.0652C137.956 71.1199 136.587 69.8337 136.533 68.1917L135.821 48.7342C135.766 47.0922 136.998 45.6965 138.612 45.6418L152.515 45.0945C154.129 45.0397 155.47 46.3259 155.525 47.9679Z" fill="#E6DCCB"/>
<path d="M151.666 67.0148L141.13 67.4252C140.172 67.4526 139.378 66.7137 139.351 65.7833L138.776 51.0875C138.749 50.1297 139.488 49.3361 140.418 49.3087L150.954 48.8982C151.912 48.8708 152.706 49.6097 152.733 50.5402L153.308 65.2359C153.362 66.1664 152.624 66.9874 151.666 67.0148ZM140.473 49.6645C139.734 49.6918 139.159 50.3213 139.187 51.0601L139.761 65.7559C139.789 66.4948 140.418 67.0695 141.157 67.0421L151.693 66.6316C152.432 66.6043 153.007 65.9748 152.979 65.2359L152.405 50.5402C152.377 49.8013 151.748 49.2266 151.009 49.254L140.473 49.6645Z" fill="#2C2A29"/>
<path d="M142.458 67.1734L142.075 67.1864L142.203 70.9333L142.586 70.9203L142.458 67.1734Z" fill="#2C2A29"/>
<path d="M149.546 66.8994L149.163 66.9125L149.29 70.6594L149.673 70.6464L149.546 66.8994Z" fill="#2C2A29"/>
<path d="M141.644 45.6084L141.261 45.6232L141.395 49.0963L141.778 49.0815L141.644 45.6084Z" fill="#2C2A29"/>
<path d="M148.732 45.3345L148.349 45.3492L148.482 48.8223L148.865 48.8076L148.732 45.3345Z" fill="#2C2A29"/>
</svg>
