<svg width="389" height="388" viewBox="0 0 389 388" fill="none" xmlns="http://www.w3.org/2000/svg">
<path d="M316.682 240.434C314.455 240.434 312.371 239.105 311.509 236.95C309.389 231.668 299.438 227.07 293.618 225.381C290.672 224.519 288.948 221.465 289.81 218.484C290.672 215.538 293.726 213.813 296.672 214.675C296.887 214.747 301.629 216.112 306.946 218.807C314.67 222.723 319.664 227.429 321.82 232.818C322.969 235.656 321.568 238.925 318.73 240.039C318.048 240.291 317.365 240.434 316.682 240.434Z" fill="#59CBE8"/>
<path d="M140.43 177.133C139.424 177.133 138.418 176.845 137.484 176.306C114.491 162.008 102.277 145.697 101.774 144.979C99.9413 142.5 100.48 139.015 102.923 137.183C105.402 135.351 108.887 135.89 110.719 138.333C110.899 138.584 122.359 153.745 143.376 166.822C145.998 168.439 146.789 171.887 145.172 174.474C144.13 176.199 142.298 177.133 140.43 177.133Z" fill="#59CBE8"/>
<path d="M272.135 284.839C271.739 284.839 271.308 284.803 270.877 284.695C261.321 282.504 231.61 276.468 231.323 276.396C228.305 275.785 226.365 272.839 226.976 269.822C227.586 266.804 230.532 264.864 233.55 265.475C234.772 265.726 263.692 271.618 273.356 273.809C276.338 274.492 278.242 277.474 277.559 280.492C276.985 283.078 274.685 284.839 272.135 284.839Z" fill="#59CBE8"/>
<path d="M51.8725 351.661C51.2259 351.661 50.5792 351.553 49.9325 351.302C47.0584 350.224 45.5855 347.026 46.6273 344.152C55.8603 319.22 80.721 298.131 81.7629 297.233C84.134 295.257 87.6188 295.545 89.5947 297.916C91.5707 300.287 91.2833 303.772 88.9122 305.748C88.6607 305.963 65.237 325.866 57.0459 347.996C56.2555 350.26 54.1359 351.661 51.8725 351.661Z" fill="#59CBE8"/>
<path d="M188.319 184.749C187.636 184.749 186.954 184.677 186.271 184.498C143.95 174.762 106.587 146.021 86.3612 107.616C83.9901 103.125 85.7145 97.5929 90.2053 95.2577C94.696 92.8866 100.229 94.611 102.564 99.1018C120.347 132.872 153.183 158.128 190.367 166.678C195.289 167.828 198.378 172.714 197.229 177.672C196.259 181.875 192.486 184.749 188.319 184.749Z" fill="#9063CD"/>
<path d="M125.88 45.2129H44.5796V151.59H125.88V45.2129Z" fill="#F5B6CD"/>
<path d="M304.073 280.132C299.905 280.132 296.133 277.258 295.163 273.019C294.013 268.097 297.103 263.175 302.025 262.026C304.037 261.559 305.797 260.912 307.45 260.086C315.246 256.026 319.772 245.823 317.545 237.345C315.282 228.83 306.336 222.22 297.534 222.579C292.505 222.795 288.229 218.843 288.014 213.777C287.798 208.712 291.75 204.472 296.816 204.257C305.222 203.933 313.773 206.628 320.886 211.909C327.999 217.154 333.137 224.555 335.256 232.674C337.412 240.793 336.622 249.739 333.029 257.822C329.436 265.906 323.365 272.516 315.892 276.36C312.91 277.905 309.641 279.09 306.192 279.881C305.438 280.025 304.755 280.132 304.073 280.132Z" fill="#9063CD"/>
<path d="M263.081 277.15C262.506 277.15 261.931 277.114 261.356 276.971C258.734 276.468 256.111 275.965 253.489 275.462C245.693 273.953 237.609 272.372 229.706 271.187C218.102 269.462 208.15 268.887 199.276 269.354C194.211 269.642 189.9 265.762 189.648 260.696C189.361 255.631 193.241 251.32 198.306 251.068C208.438 250.529 219.611 251.176 232.436 253.08C240.735 254.301 249.034 255.918 257.045 257.499C259.632 258.002 262.219 258.505 264.841 259.008C269.799 259.942 273.068 264.756 272.134 269.714C271.236 274.097 267.392 277.15 263.081 277.15Z" fill="#9063CD"/>
<path d="M65.9555 316.956C63.9077 316.956 61.824 316.274 60.1355 314.873C56.2196 311.639 55.6807 305.891 58.914 301.975C72.2425 285.845 90.6007 273.666 110.611 267.666C115.461 266.229 120.563 268.959 122.036 273.809C123.509 278.659 120.743 283.761 115.893 285.234C99.2947 290.228 84.0981 300.323 73.0688 313.687C71.2366 315.807 68.614 316.956 65.9555 316.956Z" fill="#9063CD"/>
<path d="M168.416 232.782H105.977V314.513H168.416V232.782Z" fill="#FF7F41"/>
<path d="M159.399 259.008H115.21C114.168 259.008 113.342 258.181 113.342 257.14C113.342 256.098 114.168 255.271 115.21 255.271H159.399C160.441 255.271 161.267 256.098 161.267 257.14C161.267 258.181 160.441 259.008 159.399 259.008Z" fill="white"/>
<path d="M159.399 273.773H115.21C114.168 273.773 113.342 272.947 113.342 271.905C113.342 270.863 114.168 270.037 115.21 270.037H159.399C160.441 270.037 161.267 270.863 161.267 271.905C161.267 272.947 160.441 273.773 159.399 273.773Z" fill="white"/>
<path d="M159.399 288.503H115.21C114.168 288.503 113.342 287.677 113.342 286.635C113.342 285.593 114.168 284.767 115.21 284.767H159.399C160.441 284.767 161.267 285.593 161.267 286.635C161.267 287.677 160.441 288.503 159.399 288.503Z" fill="white"/>
<path d="M159.399 303.269H115.21C114.168 303.269 113.342 302.442 113.342 301.4C113.342 300.359 114.168 299.532 115.21 299.532H159.399C160.441 299.532 161.267 300.359 161.267 301.4C161.267 302.442 160.441 303.269 159.399 303.269Z" fill="white"/>
<path d="M127.066 72.9835C126.167 72.9835 125.305 72.6602 124.623 71.9776L115.066 62.4213C113.701 61.0561 113.701 58.8646 115.066 57.5353C116.432 56.1702 118.623 56.1702 119.952 57.5353L127.066 64.6487L154.405 37.309C155.77 35.9439 157.962 35.9439 159.291 37.309C160.656 38.6742 160.656 40.8657 159.291 42.195L129.509 71.9776C128.862 72.6242 127.964 72.9835 127.066 72.9835Z" fill="#00C389"/>
<path d="M141.615 249.523C140.717 249.523 139.855 249.2 139.172 248.518L129.616 238.961C128.251 237.596 128.251 235.405 129.616 234.075C130.981 232.71 133.173 232.71 134.502 234.075L141.615 241.189L168.955 213.849C170.32 212.484 172.512 212.484 173.841 213.849C175.206 215.214 175.206 217.406 173.841 218.735L144.058 248.518C143.376 249.2 142.514 249.523 141.615 249.523Z" fill="#00C389"/>
<path d="M239.729 257.355C239.442 257.355 239.118 257.32 238.831 257.284C216.808 253.655 202.151 253.763 193.744 254.445C184.655 255.2 180.703 256.853 180.667 256.853L180.739 256.817L176.14 246.685C176.859 246.362 194.498 238.674 240.663 246.254C243.681 246.757 245.765 249.631 245.262 252.649C244.795 255.415 242.423 257.355 239.729 257.355Z" fill="#F5B6CD"/>
<path d="M198.774 172.355C198.558 172.355 198.343 172.355 198.091 172.319C173.769 169.409 151.495 153.17 150.561 152.488C148.082 150.655 147.544 147.171 149.376 144.692C151.208 142.213 154.693 141.674 157.172 143.506C157.495 143.758 178.116 158.703 199.421 161.253C202.474 161.613 204.666 164.379 204.306 167.433C203.983 170.271 201.576 172.355 198.774 172.355Z" fill="#F5B6CD"/>
<path d="M337.879 261.918C337.412 261.918 336.945 261.846 336.478 261.738C333.496 260.984 331.7 257.93 332.49 254.948C338.597 231.417 324.155 218.052 323.544 217.513C321.245 215.466 321.03 211.981 323.041 209.682C325.089 207.382 328.61 207.167 330.909 209.179C331.736 209.897 351.1 227.393 343.232 257.75C342.621 260.265 340.358 261.918 337.879 261.918Z" fill="#F5B6CD"/>
<path d="M114.132 79.3781H56.6148C55.2497 79.3781 54.1719 78.2644 54.1719 76.9351C54.1719 75.6059 55.2856 74.4922 56.6148 74.4922H114.132C115.497 74.4922 116.575 75.6059 116.575 76.9351C116.575 78.2644 115.497 79.3781 114.132 79.3781Z" fill="white"/>
<path d="M114.132 98.5627H56.6148C55.2497 98.5627 54.1719 97.449 54.1719 96.1197C54.1719 94.7905 55.2856 93.6768 56.6148 93.6768H114.132C115.497 93.6768 116.575 94.7905 116.575 96.1197C116.575 97.449 115.497 98.5627 114.132 98.5627Z" fill="white"/>
<path d="M114.132 117.783H56.6148C55.2497 117.783 54.1719 116.669 54.1719 115.34C54.1719 114.011 55.2856 112.897 56.6148 112.897H114.132C115.497 112.897 116.575 114.011 116.575 115.34C116.575 116.669 115.497 117.783 114.132 117.783Z" fill="white"/>
<path d="M114.132 136.967H56.6148C55.2497 136.967 54.1719 135.854 54.1719 134.525C54.1719 133.195 55.2856 132.082 56.6148 132.082H114.132C115.497 132.082 116.575 133.195 116.575 134.525C116.575 135.854 115.497 136.967 114.132 136.967Z" fill="white"/>
<path d="M303.713 122.417H222.413V228.794H303.713V122.417Z" fill="#FDDA24"/>
<path d="M291.965 156.547H234.448C233.083 156.547 232.005 155.434 232.005 154.104C232.005 152.775 233.119 151.661 234.448 151.661H291.965C293.33 151.661 294.408 152.775 294.408 154.104C294.408 155.434 293.33 156.547 291.965 156.547Z" fill="white"/>
<path d="M291.965 175.732H234.448C233.083 175.732 232.005 174.618 232.005 173.289C232.005 171.96 233.119 170.846 234.448 170.846H291.965C293.33 170.846 294.408 171.96 294.408 173.289C294.408 174.618 293.33 175.732 291.965 175.732Z" fill="white"/>
<path d="M291.965 194.952H234.448C233.083 194.952 232.005 193.838 232.005 192.509C232.005 191.18 233.119 190.066 234.448 190.066H291.965C293.33 190.066 294.408 191.18 294.408 192.509C294.408 193.838 293.33 194.952 291.965 194.952Z" fill="white"/>
<path d="M291.965 214.136H234.448C233.083 214.136 232.005 213.023 232.005 211.693C232.005 210.364 233.119 209.25 234.448 209.25H291.965C293.33 209.25 294.408 210.364 294.408 211.693C294.408 213.023 293.33 214.136 291.965 214.136Z" fill="white"/>
<path d="M285.75 140.74C284.852 140.74 283.99 140.417 283.307 139.734L273.751 130.178C272.386 128.813 272.386 126.621 273.751 125.292C275.116 123.927 277.308 123.927 278.637 125.292L285.75 132.405L313.09 105.066C314.455 103.7 316.647 103.7 317.976 105.066C319.341 106.431 319.341 108.622 317.976 109.952L288.193 139.734C287.511 140.417 286.612 140.74 285.75 140.74Z" fill="#00C389"/>
</svg>
