<svg width="429" height="429" fill="none" xmlns="http://www.w3.org/2000/svg"><path d="M107.801 145.913c5.932-6.196 5.254-16.471-1.513-22.948-6.767-6.478-17.061-6.706-22.993-.509-5.931 6.196-5.254 16.471 1.513 22.948 6.767 6.478 17.062 6.706 22.993.509Z" fill="#E4AC7B"/><path d="M145.195 228.8a3.507 3.507 0 0 1-1.748-.477c-16.366-9.891-30.427-29.116-31.023-29.911-1.113-1.509-.755-3.614.754-4.726 1.51-1.113 3.615-.755 4.727.754.159.239 13.903 18.948 29.037 28.124 1.589.953 2.106 3.019 1.152 4.647a3.466 3.466 0 0 1-2.899 1.589Z" fill="#F5B6CD"/><path d="M165.254 232.216c-.556 0-1.112-.119-1.668-.318-27.329-10.884-49.613-33.843-59.623-61.49-.834-2.343.357-4.925 2.701-5.759 2.344-.835 4.925.357 5.76 2.701 9.175 25.263 29.553 46.276 54.499 56.207 2.303.913 3.416 3.535 2.502 5.839a4.507 4.507 0 0 1-4.171 2.82Z" fill="#FDDA24"/><path d="m70.278 162.941 29.832 66.971 26.097 2.979c.04 0 34.797-98.908-55.929-69.95Z" fill="#59CBE8"/><path d="M93 365.047c-.477 0-.954-.04-1.43-.119-4.012-.794-6.674-4.647-5.88-8.699.12-.715 13.586-70.587 18.829-108.72.556-4.051 4.29-6.911 8.342-6.355 4.051.556 6.911 4.29 6.355 8.341-5.283 38.531-18.788 108.799-18.947 109.475a7.422 7.422 0 0 1-7.27 6.077Z" fill="#9063CD"/><path d="M87.558 267.569s-4.37 36.783-20.457 59.623l20.457-59.623Z" fill="#fff"/><path d="M67.1 332.674a5.47 5.47 0 0 1-3.177-.993c-2.503-1.748-3.099-5.204-1.35-7.707 15.054-21.41 19.463-56.723 19.503-57.08.357-3.019 3.098-5.204 6.117-4.847 3.019.358 5.204 3.099 4.846 6.118-.198 1.549-4.727 38.451-21.41 62.125-1.112 1.589-2.82 2.384-4.528 2.384Z" fill="#00C389"/><path d="M53.476 366.755a7.49 7.49 0 0 1-5.323-2.224c-2.86-2.94-2.82-7.627.12-10.487 28.242-27.567 39.404-88.7 39.523-89.295.715-4.052 4.568-6.713 8.62-5.998 4.051.715 6.713 4.568 5.998 8.619-.477 2.701-12.076 66.376-43.774 97.32-1.43 1.39-3.297 2.065-5.164 2.065Z" fill="#FDDA24"/><path d="M81.043 172.951c-.397 0-.834-.04-1.231-.159a56.567 56.567 0 0 1-30.626-21.609c-7.428-10.447-11.083-23.238-10.328-36.028.159-2.423.477-4.767.953-7.031.517-2.423 2.9-3.972 5.363-3.456 2.463.516 3.972 2.9 3.456 5.363-.398 1.827-.636 3.733-.755 5.68-.636 10.765 2.463 21.529 8.7 30.308 6.235 8.778 15.372 15.213 25.74 18.153 2.383.675 3.773 3.178 3.097 5.561-.595 1.946-2.423 3.218-4.369 3.218Z" fill="#9063CD"/><path d="M75.204 176.684c-.318 0-.596-.039-.914-.119-12.631-3.575-23.158-11.4-30.348-22.602-5.441-8.421-7.11-15.769-7.15-16.087a3.365 3.365 0 0 1 2.582-4.012c1.828-.397 3.615.755 4.012 2.542.04.119 1.55 6.713 6.396 14.101 6.395 9.812 15.253 16.366 26.375 19.544a3.37 3.37 0 0 1 2.304 4.171 3.384 3.384 0 0 1-3.257 2.462ZM32.026 123.218a3.389 3.389 0 0 1-3.377-3.177c-.04-1.073-.476-10.447 2.225-15.452.874-1.629 2.94-2.265 4.568-1.391 1.629.874 2.264 2.94 1.39 4.568-1.35 2.543-1.589 8.66-1.43 11.877a3.32 3.32 0 0 1-3.178 3.536c-.079.039-.119.039-.198.039Z" fill="#FDDA24"/><path d="M111.113 218.83h18.59l-12.751 59.424H46.246l1.828-8.5c6.395-29.713 32.651-50.924 63.039-50.924Z" fill="#2C2A29"/><path d="M313.061 202.266c-1.669 0-3.258-.08-4.727-.239-11.56-1.152-19.027-6.196-19.345-6.395-2.105-1.43-2.622-4.33-1.192-6.435 1.43-2.105 4.29-2.622 6.395-1.192.159.08 6.197 4.052 15.492 4.886 12.473 1.112 24.787-3.694 36.505-14.26a4.598 4.598 0 0 1 6.514.357 4.6 4.6 0 0 1-.357 6.515c-14.856 13.426-28.958 16.763-39.285 16.763Z" fill="#00C389"/><path d="M337.49 201.273a3.041 3.041 0 0 1-2.701-1.669c-.715-1.47-.12-3.257 1.39-4.012 8.302-4.051 16.087-10.407 23.158-18.868a3.012 3.012 0 0 1 4.211-.397 3.012 3.012 0 0 1 .397 4.211c-7.587 9.136-16.048 16.008-25.105 20.417-.437.238-.913.318-1.35.318ZM312.107 206.993h-.04c-14.021-.239-23.714-5.323-24.111-5.562-1.47-.794-1.986-2.582-1.231-4.051.794-1.47 2.582-1.986 4.051-1.232.159.08 8.938 4.648 21.411 4.846 1.668.04 2.979 1.391 2.939 3.019-.079 1.669-1.39 2.98-3.019 2.98Z" fill="#59CBE8"/><path d="M278.343 365.683H166.128c-11.122 0-20.139-9.017-20.139-20.139V82.504c0-11.123 9.017-20.14 20.139-20.14h112.215c11.123 0 20.14 9.017 20.14 20.14v263c.039 11.162-8.978 20.179-20.14 20.179Z" fill="#FF7F41"/><path d="M222.256 355.554c5.243 0 9.493-4.251 9.493-9.494a9.494 9.494 0 1 0-18.987 0 9.494 9.494 0 0 0 9.494 9.494ZM287.916 92.712H156.555v234.083h131.361V92.712Z" fill="#fff"/><path d="M196.357 185.026c.397 1.589 2.025 2.383 3.654 1.867 13.386-4.091 26.773-6.872 40.596-8.898 1.589-.198 2.463-1.827 1.867-3.456-1.231-3.416-1.867-5.163-3.098-8.58-.517-1.43-1.986-2.383-3.456-2.224-13.506 1.668-26.574 4.091-39.643 7.865-1.708.516-2.741 2.423-2.304 4.091a404.254 404.254 0 0 0 2.384 9.335ZM250.538 186.893c-.517-1.549-1.947-2.542-3.337-2.383-21.172 2.661-41.748 7.865-61.291 16.445-1.43.675-2.264 2.463-1.986 4.012.754 4.012 1.152 5.998 1.946 10.01.318 1.708 1.946 2.502 3.535 1.748 19.822-9.017 40.795-14.737 62.324-18.154 1.351-.238 2.066-1.787 1.55-3.376a513.957 513.957 0 0 0-2.741-8.302ZM250.458 209.257c-.516-1.629-2.065-2.701-3.495-2.423-13.228 2.86-26.137 6.276-38.888 10.605-1.629.596-2.542 2.304-2.106 3.854 1.033 3.733 1.51 5.561 2.543 9.295.476 1.747 2.462 2.661 4.29 1.946 12.79-4.528 25.7-8.501 38.888-11.678 1.271-.318 1.906-1.788 1.43-3.297-1.073-3.297-1.589-4.966-2.662-8.302ZM383.726 226.695l.08 126.118c0 6.157-5.005 11.162-11.162 11.162-5.76 0-10.527-4.449-11.122-10.05l-12.473-125.482c-.953-9.534 6.038-18.074 15.571-18.988 9.533-.953 18.074 6.038 18.987 15.571.119.517.119 1.113.119 1.669Z" fill="#2C2A29"/><path d="m361.919 230.866-27.965 124.41c-1.35 6.077-7.428 9.93-13.505 8.54-5.72-1.271-9.454-6.753-8.739-12.433l16.008-126.516c1.192-9.533 9.891-16.246 19.424-15.054 9.534 1.191 16.247 9.891 15.055 19.424-.04.556-.159 1.112-.278 1.629Z" fill="#2C2A29"/><path d="M360.218 144.977c3.504-8.758.17-18.328-7.447-21.376-7.618-3.048-16.634 1.58-20.138 10.338-3.505 8.758-.171 18.329 7.447 21.377 7.617 3.048 16.633-1.581 20.138-10.339Z" fill="#B28038"/><path d="M356.636 242.107h-3.337c-13.346 0-24.151-10.805-24.151-24.151v-2.145h51.599v2.145c.04 13.346-10.804 24.151-24.111 24.151Z" fill="#2C2A29"/><path d="m375.226 159.564 12.79 73.288-65.502 3.138c-.039 0-6.474-75.592 52.712-76.426Z" fill="#E6DCCB"/><path d="M368.354 171.401c-1.748 0-3.416-.993-4.171-2.661a4.604 4.604 0 0 1 2.225-6.117c.158-.08 6.633-3.297 12.075-10.844 7.309-10.169 9.414-23.198 6.276-38.69-.516-2.502 1.112-4.925 3.615-5.442 2.502-.516 4.925 1.112 5.442 3.615 4.647 22.84-1.867 37.815-8.143 46.356-6.872 9.374-14.976 13.227-15.333 13.386-.675.238-1.351.397-1.986.397Z" fill="#9063CD"/><path d="M397.232 133.506h-.238c-1.629-.119-2.86-1.589-2.741-3.217.715-9.216-.795-19.146-4.489-29.514a2.977 2.977 0 0 1 1.788-3.813 2.976 2.976 0 0 1 3.813 1.787c4.012 11.162 5.641 21.927 4.846 32.017-.119 1.549-1.43 2.74-2.979 2.74ZM373.2 175.254a2.994 2.994 0 0 1-2.542-1.43c-.874-1.39-.397-3.257.993-4.091.119-.079 8.5-5.323 15.015-15.968.874-1.391 2.701-1.867 4.091-.993 1.391.873 1.867 2.701.993 4.091-7.309 11.956-16.643 17.716-17.041 17.954-.437.318-.993.437-1.509.437Z" fill="#59CBE8"/><path d="M318.463 209.336c-5.561 0-10.288-4.25-10.805-9.891-.437-4.846-1.231-9.652-2.423-14.3-1.152-4.488-2.78-9.056-4.846-13.585-1.986-4.369-4.369-8.619-7.031-12.631a83.723 83.723 0 0 0-9.096-11.202 85.386 85.386 0 0 0-10.844-9.573c-3.734-2.781-7.865-5.323-12.274-7.587a85.594 85.594 0 0 0-13.426-5.442c-4.41-1.351-9.176-2.383-14.102-3.019-5.918-.755-10.129-6.197-9.335-12.155.755-5.918 6.197-10.129 12.155-9.335 6.118.795 12.116 2.066 17.717 3.814 5.799 1.787 11.44 4.091 16.802 6.792 5.521 2.821 10.725 5.998 15.452 9.534a113.87 113.87 0 0 1 13.545 11.956 112.305 112.305 0 0 1 11.4 14.062l.04.039c3.377 5.005 6.316 10.328 8.819 15.81 2.542 5.64 4.607 11.4 6.077 17.08 1.51 5.84 2.503 11.838 3.059 17.836.516 5.958-3.893 11.241-9.851 11.757-.437.04-.755.04-1.033.04Z" fill="#F5B6CD"/><path d="M295.265 168.7c-2.582 0-5.084-1.271-6.554-3.614-5.641-8.898-13.228-16.803-21.927-22.761-4.409-3.019-9.096-5.601-13.903-7.627a75.171 75.171 0 0 0-15.173-4.608c-10.408-2.026-21.331-1.946-31.619.278-10.288 2.185-20.259 6.594-28.878 12.751-3.496 2.503-8.302 1.669-10.805-1.827-2.502-3.496-1.668-8.302 1.827-10.804 10.328-7.349 22.285-12.632 34.638-15.254 12.314-2.621 25.383-2.741 37.816-.318a96.238 96.238 0 0 1 18.192 5.522c5.8 2.423 11.401 5.521 16.684 9.136 10.407 7.15 19.464 16.604 26.216 27.249 2.304 3.615 1.192 8.382-2.423 10.686a7.551 7.551 0 0 1-4.091 1.191Z" fill="#FDDA24"/><path d="M222.732 303.597c-3.853 0-7.706-.238-11.519-.675-5.72-.676-11.361-1.828-16.683-3.456a97.574 97.574 0 0 1-30.07-15.214c-18.193-13.664-31.421-34.042-36.267-55.809-1.31-5.84 2.384-11.639 8.223-12.95s11.638 2.383 12.949 8.223c3.774 16.842 14.022 32.572 28.124 43.178a76 76 0 0 0 23.396 11.837c4.091 1.271 8.381 2.145 12.83 2.661 4.37.517 8.819.636 13.228.397 5.998-.317 11.082 4.29 11.4 10.249.318 5.998-4.29 11.082-10.248 11.4a80.694 80.694 0 0 1-5.363.159Z" fill="#F5B6CD"/><path d="M135.661 174.619a9.09 9.09 0 0 1-4.012-.914 9.265 9.265 0 0 1-4.369-12.393 104.555 104.555 0 0 1 12.393-19.821c5.005-6.316 10.526-11.917 16.445-16.684 12.314-9.93 26.733-17.08 41.669-20.616 5.005-1.191 10.01 1.907 11.162 6.912 1.191 5.005-1.907 10.01-6.912 11.162-12.274 2.9-24.151 8.779-34.28 17.001-4.846 3.893-9.375 8.501-13.506 13.744a86.779 86.779 0 0 0-10.208 16.326c-1.589 3.337-4.886 5.283-8.382 5.283Z" fill="#00C389"/><path d="M152.742 283.934c-2.86 0-5.72-1.112-7.865-3.376-10.05-10.566-17.994-23.357-22.96-36.942-4.965-13.585-7.15-28.441-6.316-43.019.358-5.958 5.482-10.526 11.44-10.208 5.959.357 10.527 5.481 10.209 11.44-.675 11.638 1.073 23.515 5.005 34.32 3.972 10.844 10.288 21.013 18.312 29.434 4.131 4.33 3.932 11.201-.397 15.333-2.026 2.025-4.727 3.018-7.428 3.018Z" fill="#FF7F41"/><path d="M222.653 310.826c-12.95 0-25.899-2.383-37.975-7.15-3.972-1.549-5.958-6.077-4.369-10.049 1.549-3.973 6.077-5.959 10.05-4.37 17.438 6.832 36.941 7.945 55.015 3.099 18.153-4.807 34.558-15.492 46.197-30.07 2.661-3.337 7.547-3.893 10.884-1.232 3.336 2.662 3.892 7.548 1.231 10.884-13.704 17.121-32.969 29.713-54.3 35.353-8.739 2.383-17.756 3.535-26.733 3.535Z" fill="#59CBE8"/><path d="M271.829 288.105c-3.416 0-6.793-1.589-8.898-4.608-3.456-4.885-2.264-11.678 2.662-15.094a74.616 74.616 0 0 0 12.353-10.844 74.63 74.63 0 0 0 9.692-13.228 73.93 73.93 0 0 0 6.594-14.975 75.499 75.499 0 0 0 3.138-16.048c.517-5.958 5.76-10.407 11.718-9.891 5.959.517 10.408 5.76 9.891 11.719-.596 7.15-1.986 14.141-4.091 20.735-2.105 6.713-5.005 13.187-8.501 19.305-3.614 6.236-7.825 11.956-12.512 17.04-4.767 5.164-10.09 9.851-15.849 13.863-1.867 1.391-4.052 2.026-6.197 2.026Z" fill="#9063CD"/></svg>